<svg xmlns="http://www.w3.org/2000/svg" width="85" height="40"><defs><linearGradient id="a" x1="110.267%" x2="15.357%" y1="0%" y2="100%"><stop offset="0%" stop-color="#94A3B8"/><stop offset="100%" stop-color="#475569"/></linearGradient></defs><path fill="url(#a)" fill-rule="nonzero" d="M54.088 4.21h.345c.767.46 1.151 1.418 1.132 2.911l.287-.134.154-.096a51.92 51.92 0 0 0 6.578-2.106l2.053-.765 2.302-.728c.326-.134.67-.23 1.016-.249a5.832 5.832 0 0 0 1.477-.46c1.573-.287 3.03-.574 4.411-.88l.346-.038c.226-.001.449-.053.652-.153l.48-.077c-.039-.096.095-.153.306-.153h.384c.23 0 .46-.038.672-.134.287-.153.556-.21.805-.21h.346c.23 0 .46-.077.67-.173a3.345 3.345 0 0 1 1.152-.21h.383c.23 0 .46-.039.652-.134.289-.154.576-.23.787-.23h.384c.23 0 .46-.02.652-.115 1.343-.23 2.13.057 2.416.92.134.42.078.727-.191.956-.442.345-1.074.517-1.938.44l-5.657.269-1.92.287-.805.153c-.25 0-.479.057-.633.23l-.479.095-1.765.306-4.028 1.092c-4.564 1.149-8.784 2.643-12.697 4.5l-.057.23-.422 2.01-.576 1.494-.115 1.666-.288 3.12v4.596c0 .249.058.478.153.67l.231 1.149c0 .249.019.48.115.67l.288 1.283v-.191.191l.077.192.21.861c.039.211.077.403.173.575l.211.67v.498c0 .134-.018.23-.096.287l-.287.096h-.69a.698.698 0 0 1-.288-.096c-.289-.287-.48-.631-.653-1.053-.153-.191-.25-.478-.345-.86-.096-.384-.154-.594-.135-.633-.403-.728-.575-1.398-.48-1.953.097-.537.097-.862.039-.957v-1.073c.038-2.661.096-5.112.23-7.41.288-.44.346-.995.192-1.665l-.039-.345v-.383c0-.344.04-.574.058-.632.077-.42.135-.708.23-.861l.058-.326v-.383c-.02-.287-.21-.421-.576-.421l-.575.191-.211-.057v.038l-.672 5.38-.134.709a35.282 35.282 0 0 0 .154 4.729l.076.345.345 1.34-.038.9c0 .115-.058.21-.21.249-1.44.326-2.053-.25-1.804-1.723v-.709l.039-.344c.095-.421.134-.632.095-.67a.858.858 0 0 0 0-.44h.039c.057-.096.02-.46-.134-1.092l-.039-.383v-1.475c0-.976.039-1.78.077-2.45l.115-.48c.288-1.11.23-1.971-.192-2.526-.787.42-1.65.804-2.513 1.187l-.46.133c-1.784.44-2.608-.133-2.493-1.704.364-.383.843-.593 1.439-.69l.383-.037H46.8c.345 0 .672-.057 1.017-.153l.46-.134c.21-.154.537-.345.978-.575.038-.038.096 0 .172.058.345-.154.442-.48.307-1.015l-.018-.345V6.78c1.265-.747 1.88-.269 1.822 1.455-.039.382.21.478.69.268l.384-.268c.422.038.556-.21.422-.767l-.038-.344V5.687l.288-.422.076-.306v-.747h.73v-.001ZM43.021 14.59l-.48.038c-.671.632-1.592 1.054-2.704 1.264h-1.094v6.931c0 .135-.038.192-.057.23-.48.21-.71.154-.671-.23 0-.249-.038-.516-.096-.727a5.149 5.149 0 0 1-.096-1.819c.154-1.628-.134-2.72-.901-3.294h-1.113c-.096 0-.192.038-.23.096a11.465 11.465 0 0 0-1.592 2.451v2.202l.02.613.076.9c.02.402.057.689.154.918.095.191.134.345.134.48.019 1.57.863 2.24 2.512 2.01a.5.5 0 0 0 .384-.192l.383-.344c-.019-.134.077-.383.23-.747.096.23.23.422.422.517l.288.057c1.055.192 1.63-.114 1.784-.976a15.82 15.82 0 0 0 .191-2.527c0-1.494.058-2.968.154-4.366l.039-.191.038.21c.092.603.287 1.186.575 1.724.096.038.154.191.115.556-.019.344-.019.727.077 1.148.057.402.192.728.384.957.191.21.345.345.44.345h.73c.747-.383 1.227-.25 1.477.344.288.671.9 1.054 1.822 1.092.824-.345 1.38-1.092 1.63-2.145l.058-.44c.095-.823.134-1.781.134-2.873 0-.134-.039-.19-.096-.153l-.134-.287c-.096-.191-.116-.421-.116-.65l-.038-.384c-.134-1.302-.614-2.297-1.438-2.891h-.729c-.135 0-.193.019-.23.057-.288.479-.71.804-1.247 1.015v.746c0 .115-.039.211-.096.25a.365.365 0 0 1-.25.095v3.677l-.076.344c-.192.536-.345.613-.499.153.019-.344 0-.575-.077-.593a.471.471 0 0 1-.096-.288v-2.566c.269-.096.384-.21.384-.345v-1.819a1.437 1.437 0 0 0-.48-.573Zm3.337 2.547.058.19c.153 1.38.096 2.49-.192 3.352-.25.746-.422.804-.518.23 0-.154-.019-.287-.096-.345l-.116-.364a2.268 2.268 0 0 1-.172-1.015l.27-.478.056-.288.039-.44v-.996c.21 0 .441.058.671.154Zm-27.715 2.048v1.092l-.077.306c-.096.172-.096.326-.057.555a37.69 37.69 0 0 0-.23 4.212c.038.576.134.977.23 1.265.095.287.134.613.134 1.033v1.15c.287 1.722.498 3.465.671 5.226.058.632.192 1.283.403 1.915.173.384.173.766 0 1.11-.096 1.57.614 2.24 2.186 1.992.403-.038.672-.364.767-.9.192-1.053 0-1.723-.575-2.067l-.364-.365c-.5-.593-.863-1.493-1.074-2.7l-.039-.172a19.18 19.18 0 0 1-.134-2.355v-7.314c.224-.952.384-1.918.48-2.891.134-1.187-.154-1.896-.883-2.05-.767-.153-1.246.039-1.438.575v.383ZM35.809 8.595v.345c-.46.766-1.036 1.398-1.765 1.877a8.402 8.402 0 0 0-1.917 1.761 66.945 66.945 0 0 0-3.108 4.155 33.39 33.39 0 0 1-5.044 5.935c-.671.633-1.381.69-2.052.154v-.728c.038-.478.172-.804.46-.957a2.25 2.25 0 0 0 .499-.325l1.247-.92a13.22 13.22 0 0 0 2.378-2.01 82.989 82.989 0 0 0 3.989-4.825 23.975 23.975 0 0 0 2.014-3.39c-1.88.652-3.606 1.437-5.178 2.394l-.576.364a73.123 73.123 0 0 0-12.41 9.057c-3.758 3.389-6.923 7.43-9.455 12.159a6.871 6.871 0 0 0-.728 1.972c-.365 1.57-.863 2.872-1.611 4.001-.308.288-.787.403-1.44.384-.249-.039-.44-.096-.536-.23C.249 39.347.058 38.81 0 38.14c2.628-4.557 5.524-8.846 8.765-12.79 3.223-3.964 6.963-7.372 11.278-10.282 2.168-1.474 4.45-2.815 6.77-4.06 1.382-.727 2.782-1.455 4.22-2.125.71-.364 1.573-.65 2.57-.804l.442-.096c.863-.249 1.477-.153 1.764.25v.362Zm-4.392 11.298c1.228-.555 1.956-.038 2.186 1.455l.02.383v4.73l-.02.344c-.077 1.034-.556 1.628-1.438 1.858l-1.055-.134-.23-.057c-.345 1.11-1.247 1.665-2.743 1.627l-.172.038c-.154 1.436-.691 2.451-1.65 3.083-1.707-.02-2.397-1.053-2.186-3.12v-4.366l.288-.384.076-.325v-1.111l.691-1.13c.748-1.244 1.726-1.34 2.954-.344.403.536.575 1.398.44 2.585-.153 1.302-.095 1.762.135 1.34.096-.153.25-.287.403-.383.23-.345.287-.92.172-1.724l-.038-.344v-.747c1.19-.728 1.823-.345 1.976 1.091l.038.384c.058.67.25 1.149.537 1.474.422-.556.48-1.416.192-2.527l-.576-2.585v-1.111Zm4.392 2.202v-.364c.786.077.978.65.595 1.762-.288.918-.499.918-.595.057v-1.455Zm-9.859 2.93c.096-.039.192 0 .288.057a.633.633 0 0 1 .077.287c.402.422.48 1.149.21 2.145a5.208 5.208 0 0 0-.21 1.493v.383l-.077.326-.288.383v.192c-.402-.421-.537-1.207-.383-2.356v-1.474c.134 0 .23-.249.326-.766.038-.153.057-.384.057-.67Z"/></svg>