<svg xmlns="http://www.w3.org/2000/svg" width="67" height="32"><defs><linearGradient id="a" x1="110.267%" x2="15.357%" y1="0%" y2="100%"><stop offset="0%" stop-color="#94A3B8"/><stop offset="100%" stop-color="#475569"/></linearGradient></defs><path fill="url(#a)" fill-rule="nonzero" d="M64.513 6.938c.583 0 1.04.408 1.04 1.002 0 .591-.46 1-1.04 1-.58 0-1.04-.406-1.04-1 0-.595.457-1.002 1.04-1.002Zm0 1.717a.708.708 0 0 0 .725-.715.707.707 0 0 0-.725-.717.701.701 0 0 0-.725.717c0 .41.31.715.725.715ZM37.278 5.02c.615-1.046 1.724-.985 2.217-.492.492.492.246 1.661-.247 2.215-.492.554-1.293.985-2.032.554-.74-.431-.492-1.477.062-2.277ZM64.226.246c.37.863.432 1.972 2.774 1.972-.432.801-1.295 2.403-2.836 2.526-.74.062-.986-.185-1.233-.493-.246-.308-.694-1.086-1.54.493-.925 1.725-2.342 5.544-2.342 5.544l-2.744.801.432-1.602c-.616.74-2.62 2.926-4.099 3.389-1.358.424-2.743-.74-2.743-1.294-.678.862-2.312 2.957-3.914 3.511-1.603.554-1.787.185-2.219-.554-.555.554-2.28 2.402-3.76 2.771-.986.309-1.356-.369-1.726-.739-.801.74-2.188 2.003-3.328 2.341-.935.278-1.603-.615-1.85-1.17-.554.616-2.558 3.419-5.27 3.542-1.788-.123-2.22-2.279-1.356-4.497.863-2.217 3.205-7.885 3.205-7.885.37-.862 1.017-3.48.031-4.035l-2.62 2.126c0 1.416-.524 2.805-.986 4.497-.555 2.032-4.253 11.334-4.931 11.95l-4.993 1.725c.801-1.355 5.301-11.027 6.164-15.277.308-.863.585-2.649-.216-3.511l-2.743 2.217c.062 1.355-.189 3.178-.74 4.682-.924 2.526-5.608 11.52-6.78 13.43l-5.609 1.847c.493-.8 6.472-10.657 8.075-14.23 1.602-3.573 2.157-6.714.37-8.686-1.788-1.971-5.054-2.71-8.506-1.17S.768 8.656 1.57 11.427c.801 2.773 3.513 2.71 4.438 2.341.924-.37 2.096-1.663 1.48-3.141l5.115-2.711c.247 1.293.247 5.36-3.821 7.022-1.294.555-6.78 1.971-8.568-3.141-.493-.986-.555-5.791 4.623-8.378 4.857-2.427 8.999-2.28 12.143.123 1.11 1.109 1.91 2.341 2.342 3.696l6.287-5.05c.493.492 1.541 2.001 1.603 3.295l5.363-4.281c.74.616 2.65 3.203 1.54 6.098l-3.76 9.302c-.308 1.11-.431 1.725.124 1.725.955 0 2.126-1.078 2.928-2.864.8-1.787 2.218-5.422 2.218-5.422l3.02-.924-2.095 5.606c-.37 1.109-.062 1.294.247 1.232.308-.062 1.294-.185 2.034-2.28.74-2.094 4.314-10.903 4.314-10.903l3.144-1.047-4.253 11.581c-.308.986-.261 1.112.124 1.048.554-.093 1.602-.986 2.341-2.834C45.241 9.672 48.57.986 48.57.986L51.59 0l-4.067 11.273c-.37 1.232-.062 1.11.246 1.11s1.541-1.356 2.035-2.711c.154-1.602 1.664-4.682 3.821-5.791 2.26-1.162 3.02-.431 3.144.37.123.554.061 3.45-4.13 5.236 0 .739.4 1.632 1.541 1.108 1.134-.52 2.774-2.463 3.637-4.25.493-1.109 1.725-4.559 1.725-4.559l2.96-.8-.432 1.293c-.124.493-.124.493.185.185L64.226.246Zm-9.61 4.829c-.68.432-1.329 1.76-1.544 2.532 0 .154 0 .34.308.216 1.143-.68 1.668-1.884 1.854-2.409.136-.388.06-.772-.618-.34Zm10.515 5.487.059.247h-.001c-6.4 2.551-18.4 9.837-22.523 15.185-8.677-2.182-24.891 1.292-37.476 5.995L5.158 32l-.128-.183.007-.013 60.09-21.241.004-.001Zm-.44-2.551.278.47h-.314l-.25-.46h-.045v.46h-.274V7.4h.41c.285 0 .456.065.456.326 0 .203-.114.278-.261.286Zm-.176-.175c.095 0 .148-.025.148-.136 0-.104-.092-.114-.173-.114h-.13v.25h.155Z"/></svg>