<svg xmlns="http://www.w3.org/2000/svg" width="72" height="16"><defs><linearGradient id="a" x1="110.267%" x2="15.357%" y1="0%" y2="100%"><stop offset="0%" stop-color="#94A3B8"/><stop offset="100%" stop-color="#475569"/></linearGradient></defs><path fill="url(#a)" fill-rule="nonzero" d="M69.95 11.848a2.071 2.071 0 0 0-1.454.6c-.384.384-.598.902-.595 1.44a2.016 2.016 0 0 0 .595 1.44c.385.384.908.6 1.454.602 1.13 0 2.05-.914 2.05-2.041a2.016 2.016 0 0 0-.596-1.44 2.071 2.071 0 0 0-1.454-.601Zm-6.745-1.577c0-1.544-1.324-2.794-2.959-2.794-1.634 0-2.959 1.252-2.959 2.794 0 1.543 1.327 2.793 2.961 2.793 1.635 0 2.957-1.25 2.957-2.793Zm.012-5.43h3.265V15.7h-3.265v-.695a5.746 5.746 0 0 1-3.238.994c-3.178 0-5.755-2.565-5.755-5.729 0-3.163 2.577-5.728 5.755-5.728 1.202 0 2.315.366 3.238.994V4.84ZM37.083 6.256V4.843H33.74V15.7h3.351v-5.07c0-1.711 1.861-2.63 3.153-2.63h.039V4.844c-1.327 0-2.544.565-3.2 1.413Zm-8.329 4.015c0-1.544-1.325-2.794-2.959-2.794-1.634 0-2.959 1.252-2.959 2.794 0 1.543 1.327 2.793 2.961 2.793s2.957-1.25 2.957-2.793Zm.012-5.43h3.266V15.7h-3.266v-.695a5.747 5.747 0 0 1-3.238.994c-3.178 0-5.755-2.565-5.755-5.729 0-3.163 2.577-5.728 5.755-5.728 1.202 0 2.315.366 3.238.994V4.84Zm19.656-.29c-1.304 0-2.538.402-3.365 1.513V4.843h-3.251V15.7h3.291V9.995c0-1.65 1.112-2.46 2.452-2.46 1.434 0 2.26.853 2.26 2.437V15.7h3.262V8.796c0-2.527-2.02-4.245-4.65-4.245ZM15.016 15.7h3.419V.003h-3.419V15.7ZM0 15.703h3.62V0H.002L0 15.704ZM12.663 0c0 3.4-1.33 6.563-3.703 8.913l5.003 6.791h-4.47L4.056 8.325 5.46 7.278A9.003 9.003 0 0 0 9.118 0h3.545Z"/></svg>