<svg xmlns="http://www.w3.org/2000/svg" width="28" height="28"><defs><linearGradient id="a" x1="69.096%" x2="43.042%" y1="0%" y2="100%"><stop offset="0%" stop-color="#818CF8"/><stop offset="51.437%" stop-color="#5E63DA" stop-opacity=".828"/><stop offset="100%" stop-color="#475569" stop-opacity="0"/></linearGradient></defs><g fill="none" fill-rule="evenodd"><path d="M-2-2h32v32H-2z"/><path fill="#475569" fill-rule="nonzero" d="M17.601 8.695 14 12.296l-3.601-3.601a5.093 5.093 0 1 1 7.202 0ZM1.491 17.6A5.093 5.093 0 0 1 8.696 10.4L12.296 14l-3.601 3.601a5.093 5.093 0 0 1-7.203 0Zm17.814 0L15.704 14l3.601-3.601a5.093 5.093 0 1 1 0 7.202Zm-1.704 8.907a5.093 5.093 0 1 1-7.202-7.203l3.6-3.601 3.602 3.601a5.093 5.093 0 0 1 0 7.203Z"/><path fill="url(#a)" fill-rule="nonzero" d="M19.601 10.695 16 14.296l-3.601-3.601a5.093 5.093 0 1 1 7.202 0ZM3.491 19.6a5.093 5.093 0 0 1 7.204-7.202L14.296 16l-3.601 3.601a5.093 5.093 0 0 1-7.203 0Zm17.814 0L17.704 16l3.601-3.601a5.093 5.093 0 1 1 0 7.202Zm-1.704 8.907a5.093 5.093 0 1 1-7.202-7.203l3.6-3.601 3.602 3.601a5.093 5.093 0 0 1 0 7.203Z" transform="translate(-2 -2)"/></g></svg>