<svg xmlns="http://www.w3.org/2000/svg" width="32" height="32"><defs><linearGradient id="a" x1="0%" x2="98.661%" y1="100%" y2="1.339%"><stop offset="0%" stop-color="#1F2937" stop-opacity=".32"/><stop offset="50.249%" stop-color="#38BDF8" stop-opacity=".24"/><stop offset="100%" stop-color="#1F2937" stop-opacity=".32"/></linearGradient></defs><g fill="none" fill-rule="evenodd"><rect width="32" height="32" fill="url(#a)" rx="16"/><path fill="#38BDF8" fill-rule="nonzero" d="M18.058 12.968 16 15.026l-2.058-2.058a2.91 2.91 0 1 1 4.116 0Zm.974 5.09L16.974 16l2.058-2.058a2.91 2.91 0 1 1 0 4.116Zm-.974 5.09a2.91 2.91 0 1 1-4.116-4.116L16 16.974l2.058 2.058a2.91 2.91 0 0 1 0 4.116Zm-9.206-5.09a2.91 2.91 0 0 1 4.116-4.116L15.026 16l-2.058 2.058a2.91 2.91 0 0 1-4.116 0Z"/></g></svg>